<svg width="640" height="360" viewBox="0 0 640 360" fill="none" xmlns="http://www.w3.org/2000/svg">
  <rect width="640" height="360" rx="32" fill="#111827"/>
  <g opacity="0.15">
    <circle cx="96" cy="292" r="72" fill="#22C55E"/>
    <circle cx="520" cy="92" r="96" fill="#F97316"/>
  </g>
  <rect x="96" y="96" width="448" height="192" rx="24" fill="#1F2937" stroke="#22C55E" stroke-width="2"/>
  <g transform="translate(128 132)">
    <rect width="88" height="88" rx="16" fill="#0F172A" stroke="#22C55E" stroke-width="2"/>
    <path d="M24 56l16-36 12 20 12-28 20 44" stroke="#A7F3D0" stroke-width="6" stroke-linecap="round" stroke-linejoin="round"/>
  </g>
  <g transform="translate(240 132)" fill="#D1D5DB">
    <rect x="0" y="0" width="240" height="12" rx="6" opacity="0.9"/>
    <rect x="0" y="28" width="200" height="12" rx="6" opacity="0.7"/>
    <rect x="0" y="56" width="220" height="12" rx="6" opacity="0.6"/>
    <rect x="0" y="84" width="180" height="12" rx="6" opacity="0.5"/>
  </g>
  <circle cx="492" cy="244" r="32" fill="#22C55E" opacity="0.85"/>
  <path d="M492 228v32" stroke="#0F172A" stroke-width="6" stroke-linecap="round"/>
  <path d="M476 244h32" stroke="#0F172A" stroke-width="6" stroke-linecap="round"/>
</svg>
